<svg width="24" height="16" fill="none" xmlns="http://www.w3.org/2000/svg"><path d="M23.972 11.059l-2.05-8.433C21.779 1.698 20.892 0 18.512 0a.596.596 0 00-.594.592.591.591 0 00.595.593c1.922 0 2.208 1.473 2.236 1.635l1.887 7.78h-.829a4.728 4.728 0 00-2.101-3.364.99.99 0 00-.607.908.8.8 0 010 .103 3.643 3.643 0 011.586 2.95 3.665 3.665 0 01-.055.593 3.551 3.551 0 01-1.204 2.156 3.576 3.576 0 01-4.645 0 3.552 3.552 0 01-1.204-2.156 3.654 3.654 0 01-.055-.593 3.677 3.677 0 01.376-1.58.794.794 0 01-.737-.79.28.28 0 00-.075-.193 4.665 4.665 0 00-.71 1.975h-.737a4.733 4.733 0 00-1.553-3.017 4.767 4.767 0 00-6.354 0A4.734 4.734 0 002.18 10.61h-.821L3.25 2.82c.024-.162.321-1.635 2.236-1.635A.596.596 0 006.08.592.591.591 0 005.486 0c-2.379 0-3.267 1.698-3.41 2.626L.024 11.06a.559.559 0 00.567.719h1.586c.032.244.082.486.15.723a.295.295 0 00.04-.143.789.789 0 01.983-.762 3.582 3.582 0 01-.028-.415c.001-.198.019-.396.052-.592a3.551 3.551 0 011.2-2.166 3.576 3.576 0 014.656 0 3.551 3.551 0 011.2 2.166c.034.196.05.394.052.592a3.572 3.572 0 01-1.052 2.507 3.599 3.599 0 01-2.516 1.048 3.577 3.577 0 01-2.153-.683.795.795 0 01-.515.193.298.298 0 00-.293.296.787.787 0 01-.072.32 4.732 4.732 0 003.017 1.082 4.768 4.768 0 003.163-1.18 4.734 4.734 0 001.579-2.974h.721a4.734 4.734 0 001.557 3.004 4.767 4.767 0 006.341 0 4.734 4.734 0 001.557-3.005h1.586a.56.56 0 00.59-.46.555.555 0 00-.02-.27z" fill="#000"/></svg>