<svg width="18" height="18" fill="none" xmlns="http://www.w3.org/2000/svg"><path d="M17.46 9A8.459 8.459 0 002.41 3.696 8.46 8.46 0 008.96 17.46a8.448 8.448 0 005.87-2.34.359.359 0 00.09-.085A8.437 8.437 0 0017.46 9zM9 1.26a7.74 7.74 0 015.738 12.928 6.396 6.396 0 00-3.96-3.271 3.65 3.65 0 10-3.564 0 6.393 6.393 0 00-3.96 3.272A7.666 7.666 0 011.26 9 7.74 7.74 0 019 1.26zm0 9.405a2.93 2.93 0 110-5.861 2.93 2.93 0 010 5.861zm-5.198 4.066a5.712 5.712 0 0110.396 0 7.727 7.727 0 01-10.396 0z" fill="#000"/></svg>6.5955 6.77548 17.4509 8.96091 17.4596C11.1463 17.4683 13.2501 16.6297 14.8302 15.12C14.8649 15.0972 14.8953 15.0686 14.9202 15.0354C15.7244 14.2494 16.3633 13.3105 16.7994 12.2741C17.2356 11.2376 17.4602 10.1245 17.46 9ZM9.00004 1.26C10.4969 1.26113 11.9612 1.69624 13.2158 2.51264C14.4704 3.32904 15.4613 4.49169 16.0686 5.85978C16.6758 7.22786 16.8734 8.74268 16.6373 10.2208C16.4012 11.6988 15.7417 13.0767 14.7384 14.1876C14.3402 13.3984 13.7827 12.7004 13.1011 12.1374C12.4195 11.5745 11.6287 11.159 10.7784 10.917C11.4835 10.5226 12.0378 9.90556 12.3545 9.16241C12.6713 8.41927 12.7326 7.59205 12.5288 6.81034C12.325 6.02863 11.8677 5.33659 11.2285 4.84263C10.5893 4.34868 9.80427 4.08071 8.99644 4.08071C8.18861 4.08071 7.4036 4.34868 6.76438 4.84263C6.12516 5.33659 5.66784 6.02863 5.46408 6.81034C5.26031 7.59205 5.3216 8.41927 5.63835 9.16241C5.9551 9.90556 6.50941 10.5226 7.21444 10.917C6.36397 11.159 5.57293 11.5747 4.89132 12.138C4.20971 12.7012 3.65234 13.3998 3.25444 14.1894C1.96375 12.7701 1.25211 10.9184 1.26004 9C1.26004 6.94722 2.0755 4.97852 3.52703 3.52699C4.97857 2.07546 6.94727 1.26 9.00004 1.26V1.26ZM9.00004 10.665C8.42023 10.665 7.85346 10.493 7.37144 10.1708C6.88942 9.84852 6.51383 9.39054 6.29219 8.85476C6.07056 8.31899 6.01284 7.72951 6.12635 7.16092C6.23986 6.59233 6.51949 6.07019 6.92985 5.66058C7.34022 5.25098 7.86287 4.97231 8.43167 4.85985C9.00046 4.74739 9.58984 4.80619 10.1252 5.02882C10.6606 5.25144 11.1179 5.62788 11.4392 6.11049C11.7606 6.5931 11.9315 7.16019 11.9304 7.74C11.9285 8.51611 11.619 9.2598 11.0697 9.80809C10.5204 10.3564 9.77615 10.6645 9.00004 10.665V10.665ZM3.80164 14.7312C4.2557 13.7335 4.98728 12.8875 5.90905 12.2942C6.83083 11.701 7.90386 11.3855 9.00004 11.3855C10.0962 11.3855 11.1693 11.701 12.091 12.2942C13.0128 12.8875 13.7444 13.7335 14.1984 14.7312C12.776 16.0245 10.9225 16.7411 9.00004 16.7411C7.07755 16.7411 5.22409 16.0245 3.80164 14.7312V14.7312Z" fill="black"/>
</svg>
